<svg width="25" height="24" viewBox="0 0 25 24" fill="none" xmlns="http://www.w3.org/2000/svg">
<path d="M5.625 7H6.625C7.15543 7 7.66414 6.78929 8.03921 6.41421C8.41429 6.03914 8.625 5.53043 8.625 5C8.625 4.73478 8.73036 4.48043 8.91789 4.29289C9.10543 4.10536 9.35978 4 9.625 4H15.625C15.8902 4 16.1446 4.10536 16.3321 4.29289C16.5196 4.48043 16.625 4.73478 16.625 5C16.625 5.53043 16.8357 6.03914 17.2108 6.41421C17.5859 6.78929 18.0946 7 18.625 7H19.625C20.1554 7 20.6641 7.21071 21.0392 7.58579C21.4143 7.96086 21.625 8.46957 21.625 9V18C21.625 18.5304 21.4143 19.0391 21.0392 19.4142C20.6641 19.7893 20.1554 20 19.625 20H5.625C5.09457 20 4.58586 19.7893 4.21079 19.4142C3.83571 19.0391 3.625 18.5304 3.625 18V9C3.625 8.46957 3.83571 7.96086 4.21079 7.58579C4.58586 7.21071 5.09457 7 5.625 7Z" stroke="#1C2B30" stroke-width="2" stroke-linecap="round" stroke-linejoin="round"/>
<path d="M9.625 13C9.625 13.7956 9.94107 14.5587 10.5037 15.1213C11.0663 15.6839 11.8294 16 12.625 16C13.4206 16 14.1837 15.6839 14.7463 15.1213C15.3089 14.5587 15.625 13.7956 15.625 13C15.625 12.2044 15.3089 11.4413 14.7463 10.8787C14.1837 10.3161 13.4206 10 12.625 10C11.8294 10 11.0663 10.3161 10.5037 10.8787C9.94107 11.4413 9.625 12.2044 9.625 13Z" stroke="#1C2B30" stroke-width="2" stroke-linecap="round" stroke-linejoin="round"/>
</svg>
